<svg width="31" height="29" viewBox="0 0 31 29" fill="none" xmlns="http://www.w3.org/2000/svg">
<path d="M15.2857 18.9472C16.4224 18.9472 17.5124 18.5133 18.3162 17.7409C19.1199 16.9686 19.5714 15.921 19.5714 14.8287C19.5714 13.7364 19.1199 12.6889 18.3162 11.9165C17.5124 11.1441 16.4224 10.7102 15.2857 10.7102C14.1491 10.7102 13.059 11.1441 12.2553 11.9165C11.4515 12.6889 11 13.7364 11 14.8287C11 15.921 11.4515 16.9686 12.2553 17.7409C13.059 18.5133 14.1491 18.9472 15.2857 18.9472V18.9472Z" stroke="#2B77D0" stroke-width="2" stroke-miterlimit="10" stroke-linecap="round" stroke-linejoin="round"/>
<path d="M1 16.0369V13.6207C1 12.1929 2.21429 11.0123 3.71429 11.0123C6.3 11.0123 7.35714 9.25507 6.05714 7.09972C5.31429 5.86417 5.75714 4.25795 7.05714 3.54408L9.52857 2.18497C10.6571 1.53974 12.1143 1.92413 12.7857 3.00867L12.9429 3.26951C14.2286 5.42486 16.3429 5.42486 17.6429 3.26951L17.8 3.00867C18.4714 1.92413 19.9286 1.53974 21.0571 2.18497L23.5286 3.54408C24.8286 4.25795 25.2714 5.86417 24.5286 7.09972C23.2286 9.25507 24.2857 11.0123 26.8714 11.0123C28.3571 11.0123 29.5857 12.1792 29.5857 13.6207V16.0369C29.5857 17.4646 28.3714 18.6453 26.8714 18.6453C24.2857 18.6453 23.2286 20.4025 24.5286 22.5578C25.2714 23.8071 24.8286 25.3996 23.5286 26.1135L21.0571 27.4726C19.9286 28.1178 18.4714 27.7334 17.8 26.6489L17.6429 26.3881C16.3571 24.2327 14.2429 24.2327 12.9429 26.3881L12.7857 26.6489C12.1143 27.7334 10.6571 28.1178 9.52857 27.4726L7.05714 26.1135C6.43443 25.7689 5.9794 25.201 5.79192 24.5344C5.60444 23.8678 5.69983 23.1569 6.05714 22.5578C7.35714 20.4025 6.3 18.6453 3.71429 18.6453C2.21429 18.6453 1 17.4646 1 16.0369V16.0369Z" stroke="#2B77D0" stroke-width="2" stroke-miterlimit="10" stroke-linecap="round" stroke-linejoin="round"/>
</svg>
