<svg width="31" height="28" viewBox="0 0 31 28" fill="none" xmlns="http://www.w3.org/2000/svg">
<path d="M15.2857 18.0764C16.4224 18.0764 17.5124 17.6425 18.3162 16.8701C19.1199 16.0977 19.5714 15.0502 19.5714 13.9579C19.5714 12.8656 19.1199 11.818 18.3162 11.0456C17.5124 10.2733 16.4224 9.83936 15.2857 9.83936C14.1491 9.83936 13.059 10.2733 12.2553 11.0456C11.4515 11.818 11 12.8656 11 13.9579C11 15.0502 11.4515 16.0977 12.2553 16.8701C13.059 17.6425 14.1491 18.0764 15.2857 18.0764V18.0764Z" stroke="#6A6E83" stroke-width="2" stroke-miterlimit="10" stroke-linecap="round" stroke-linejoin="round"/>
<path d="M1 15.1662V12.75C1 11.3222 2.21429 10.1416 3.71429 10.1416C6.3 10.1416 7.35714 8.38435 6.05714 6.22899C5.31429 4.99344 5.75714 3.38723 7.05714 2.67335L9.52857 1.31424C10.6571 0.669011 12.1143 1.05341 12.7857 2.13795L12.9429 2.39878C14.2286 4.55414 16.3429 4.55414 17.6429 2.39878L17.8 2.13795C18.4714 1.05341 19.9286 0.669011 21.0571 1.31424L23.5286 2.67335C24.8286 3.38723 25.2714 4.99344 24.5286 6.22899C23.2286 8.38435 24.2857 10.1416 26.8714 10.1416C28.3571 10.1416 29.5857 11.3085 29.5857 12.75V15.1662C29.5857 16.5939 28.3714 17.7745 26.8714 17.7745C24.2857 17.7745 23.2286 19.5318 24.5286 21.6871C25.2714 22.9364 24.8286 24.5289 23.5286 25.2428L21.0571 26.6019C19.9286 27.2471 18.4714 26.8627 17.8 25.7782L17.6429 25.5173C16.3571 23.362 14.2429 23.362 12.9429 25.5173L12.7857 25.7782C12.1143 26.8627 10.6571 27.2471 9.52857 26.6019L7.05714 25.2428C6.43443 24.8982 5.9794 24.3303 5.79192 23.6637C5.60444 22.9971 5.69983 22.2862 6.05714 21.6871C7.35714 19.5318 6.3 17.7745 3.71429 17.7745C2.21429 17.7745 1 16.5939 1 15.1662V15.1662Z" stroke="#6A6E83" stroke-width="2" stroke-miterlimit="10" stroke-linecap="round" stroke-linejoin="round"/>
</svg>
