<svg width="40" height="40" viewBox="0 0 40 40" fill="none" xmlns="http://www.w3.org/2000/svg">
<path fill-rule="evenodd" clip-rule="evenodd" d="M0 20C0 14.6957 2.10714 9.60859 5.85786 5.85786C9.60859 2.10714 14.6957 0 20 0C25.3043 0 30.3914 2.10714 34.1421 5.85786C37.8929 9.60859 40 14.6957 40 20C40 25.3043 37.8929 30.3914 34.1421 34.1421C30.3914 37.8929 25.3043 40 20 40C14.6957 40 9.60859 37.8929 5.85786 34.1421C2.10714 30.3914 0 25.3043 0 20ZM27.056 28.944L20 21.8853L12.944 28.944L11.056 27.0587L18.1147 20L11.056 12.944L12.944 11.056L20 18.1147L27.056 11.056L28.944 12.944L21.8853 20L28.944 27.056L27.0587 28.944H27.056Z" fill="#2074F4"/>
</svg>
