<svg width="27" height="31" viewBox="0 0 27 31" fill="none" xmlns="http://www.w3.org/2000/svg">
<path d="M7.86969 1.81079V5.93579M18.4784 1.81079V5.93579M6.54361 14.1858H14.5001M6.54361 21.0608H10.018M25.1088 10.7483V17.802C23.8844 16.791 22.3642 16.243 20.799 16.2483C19.168 16.2483 17.643 16.8395 16.4495 17.8433C15.6314 18.5141 14.9711 19.3689 14.5186 20.3432C14.066 21.3174 13.8329 22.3856 13.8371 23.467C13.8371 24.8145 14.2084 26.107 14.8449 27.1795C15.3356 28.0183 15.9721 28.747 16.728 29.3108H7.86969C3.22839 29.3108 1.23926 26.5608 1.23926 22.4358V10.7483C1.23926 6.62329 3.22839 3.87329 7.86969 3.87329H18.4784C23.1197 3.87329 25.1088 6.62329 25.1088 10.7483Z" stroke="#2B77D0" stroke-width="2" stroke-miterlimit="10" stroke-linecap="round" stroke-linejoin="round"/>
</svg>
