<svg width="27" height="30" viewBox="0 0 27 30" fill="none" xmlns="http://www.w3.org/2000/svg">
<path d="M7.86872 1V5.125M18.4774 1V5.125M6.54263 13.375H14.4992M6.54263 20.25H10.017M25.1078 9.9375V16.9913C23.8834 15.9803 22.3633 15.4322 20.7981 15.4375C19.167 15.4375 17.642 16.0287 16.4485 17.0325C15.6304 17.7033 14.9702 18.5581 14.5176 19.5324C14.065 20.5066 13.832 21.5749 13.8361 22.6562C13.8361 24.0038 14.2074 25.2963 14.8439 26.3688C15.3346 27.2075 15.9711 27.9363 16.727 28.5H7.86872C3.22741 28.5 1.23828 25.75 1.23828 21.625V9.9375C1.23828 5.8125 3.22741 3.0625 7.86872 3.0625H18.4774C23.1187 3.0625 25.1078 5.8125 25.1078 9.9375Z" stroke="#6A6E83" stroke-width="2" stroke-miterlimit="10" stroke-linecap="round" stroke-linejoin="round"/>
</svg>
