<svg width="29" height="31" viewBox="0 0 29 31" fill="none" xmlns="http://www.w3.org/2000/svg">
<g id="Request icon">
<path id="Vector" d="M7.86872 1V5.125M18.4774 1V5.125M6.54263 13.375H14.4992M6.54263 20.25H10.017M25.1078 9.9375V16.9913C23.8834 15.9803 22.3633 15.4322 20.7981 15.4375C19.167 15.4375 17.642 16.0287 16.4485 17.0325C15.6304 17.7033 14.9702 18.5581 14.5176 19.5324C14.065 20.5066 13.832 21.5749 13.8361 22.6562C13.8361 24.0038 14.2074 25.2963 14.8439 26.3688C15.3346 27.2075 15.9711 27.9363 16.727 28.5H7.86872C3.22741 28.5 1.23828 25.75 1.23828 21.625V9.9375C1.23828 5.8125 3.22741 3.0625 7.86872 3.0625H18.4774C23.1187 3.0625 25.1078 5.8125 25.1078 9.9375Z" stroke="#6A6E83" stroke-width="2" stroke-miterlimit="10" stroke-linecap="round" stroke-linejoin="round"/>
<path id="Vector_2" d="M27.7601 22.6562C27.7601 24.0038 27.3888 25.2963 26.7523 26.3688C26.381 27.0288 25.9168 27.6063 25.3731 28.0738C24.1531 29.2013 22.5618 29.875 20.7981 29.875C19.2731 29.875 17.8675 29.3662 16.7271 28.5C15.9712 27.9363 15.3347 27.2075 14.844 26.3688C14.2075 25.2963 13.8362 24.0038 13.8362 22.6562C13.8362 20.3875 14.844 18.3387 16.4486 17.0325C17.6421 16.0287 19.1671 15.4375 20.7981 15.4375C22.4292 15.4375 23.9277 16.015 25.1079 16.9913C26.7257 18.3113 27.7601 20.36 27.7601 22.6562V22.6562Z" stroke="#6A6E83" stroke-width="2" stroke-miterlimit="10" stroke-linecap="round" stroke-linejoin="round"/>
<path id="Vector_3" d="M20.7981 26.0938C20.7981 25.1821 21.1474 24.3077 21.7691 23.6631C22.3909 23.0184 23.2341 22.6563 24.1133 22.6562C23.2341 22.6562 22.3909 22.2941 21.7691 21.6494C21.1474 21.0048 20.7981 20.1304 20.7981 19.2188C20.7981 20.1304 20.4488 21.0048 19.8271 21.6494C19.2054 22.2941 18.3622 22.6562 17.4829 22.6562C18.3622 22.6562 19.2054 23.0184 19.8271 23.6631C20.4488 24.3077 20.7981 25.1821 20.7981 26.0938Z" stroke="#6A6E83" stroke-width="2" stroke-linecap="round" stroke-linejoin="round"/>
</g>
</svg>
