<svg width="29" height="30" viewBox="0 0 29 30" fill="none" xmlns="http://www.w3.org/2000/svg">
<path d="M20.8689 3.73269C23.5187 3.73269 25.6494 5.87708 25.6494 8.51318C25.6494 11.0946 23.6006 13.1981 21.0465 13.2937C20.9285 13.28 20.8094 13.28 20.6914 13.2937M23.505 25.5864C24.4884 25.3815 25.4172 24.9854 26.1821 24.3981C28.3128 22.8 28.3128 20.1639 26.1821 18.5659C25.4309 17.9922 24.5158 17.6098 23.546 17.3912M10.9665 13.1161C10.8299 13.1024 10.666 13.1024 10.5158 13.1161C8.94804 13.0629 7.46259 12.4015 6.37399 11.2721C5.28539 10.1428 4.67912 8.634 4.68357 7.06538C4.68357 3.71904 7.38796 1.00099 10.748 1.00099C12.3545 0.972007 13.9068 1.58242 15.0633 2.69794C16.2198 3.81346 16.8858 5.34271 16.9148 6.94928C16.9438 8.55584 16.3334 10.1081 15.2178 11.2646C14.1023 12.4211 12.5731 13.0871 10.9665 13.1161ZM4.13723 18.1561C0.831862 20.3688 0.831862 23.9746 4.13723 26.1737C7.89332 28.6868 14.0533 28.6868 17.8094 26.1737C21.1148 23.961 21.1148 20.3551 17.8094 18.1561C14.067 15.6566 7.90698 15.6566 4.13723 18.1561V18.1561Z" stroke="#6A6E83" stroke-width="2" stroke-linecap="round" stroke-linejoin="round"/>
</svg>
