<svg width="26" height="28" viewBox="0 0 26 28" fill="none" xmlns="http://www.w3.org/2000/svg">
<g id="Appointment icon">
<path id="Vector" d="M7.52495 1V4.675M17.325 1V4.675M2.01245 9.68525H22.8375M24.675 21.825C24.675 22.7437 24.4177 23.6135 23.9645 24.3485C23.5326 25.0743 22.9192 25.6751 22.1846 26.0918C21.45 26.5085 20.6195 26.7268 19.775 26.725C18.5377 26.725 17.4107 26.2717 16.5532 25.5C16.1735 25.1815 15.8427 24.7895 15.5855 24.3485C15.1191 23.5895 14.8731 22.7158 14.875 21.825C14.875 19.1177 17.0677 16.925 19.775 16.925C21.245 16.925 22.5557 17.5742 23.45 18.591C24.2378 19.4843 24.6732 20.6339 24.675 21.825Z" stroke="#2B77D0" stroke-width="2" stroke-miterlimit="10" stroke-linecap="round" stroke-linejoin="round"/>
<path id="Vector_2" d="M17.864 21.825L19.0768 23.0378L21.686 20.6245" stroke="#2B77D0" stroke-width="2" stroke-linecap="round" stroke-linejoin="round"/>
<path id="Vector_3" d="M23.4499 8.9624V18.5909C22.5557 17.5742 21.2449 16.9249 19.7749 16.9249C17.0677 16.9249 14.8749 19.1177 14.8749 21.8249C14.8749 22.7437 15.1322 23.6134 15.5854 24.3484C15.8427 24.7894 16.1734 25.1814 16.5532 25.4999H7.5249C3.2374 25.4999 1.3999 23.0499 1.3999 19.3749V8.9624C1.3999 5.2874 3.2374 2.8374 7.5249 2.8374H17.3249C21.6124 2.8374 23.4499 5.2874 23.4499 8.9624Z" stroke="#2B77D0" stroke-width="2" stroke-miterlimit="10" stroke-linecap="round" stroke-linejoin="round"/>
<path id="Vector_4" d="M12.4187 15.3325H12.431M7.88501 15.3325H7.89726M7.88501 19.0075H7.89726" stroke="#2B77D0" stroke-width="2" stroke-linecap="round" stroke-linejoin="round"/>
</g>
</svg>
