<svg width="26" height="28" viewBox="0 0 26 28" fill="none" xmlns="http://www.w3.org/2000/svg">
<path d="M7.525 1V4.675M17.325 1V4.675M2.0125 9.68525H22.8375M24.675 21.825C24.675 22.7437 24.4177 23.6135 23.9645 24.3485C23.5326 25.0743 22.9192 25.6751 22.1846 26.0918C21.45 26.5085 20.6196 26.7268 19.775 26.725C18.5377 26.725 17.4107 26.2717 16.5532 25.5C16.1735 25.1815 15.8427 24.7895 15.5855 24.3485C15.1192 23.5895 14.8732 22.7158 14.875 21.825C14.875 19.1177 17.0677 16.925 19.775 16.925C21.245 16.925 22.5557 17.5742 23.45 18.591C24.2378 19.4843 24.6733 20.6339 24.675 21.825Z" stroke="#2B77D0" stroke-width="2" stroke-miterlimit="10" stroke-linecap="round" stroke-linejoin="round"/>
<path d="M17.864 21.825L19.0767 23.0378L21.686 20.6245" stroke="#2B77D0" stroke-width="2" stroke-linecap="round" stroke-linejoin="round"/>
<path d="M23.45 8.9624V18.5909C22.5557 17.5742 21.245 16.9249 19.775 16.9249C17.0677 16.9249 14.875 19.1177 14.875 21.8249C14.875 22.7437 15.1322 23.6134 15.5855 24.3484C15.8427 24.7894 16.1735 25.1814 16.5532 25.4999H7.52499C3.23749 25.4999 1.39999 23.0499 1.39999 19.3749V8.9624C1.39999 5.2874 3.23749 2.8374 7.52499 2.8374H17.325C21.6125 2.8374 23.45 5.2874 23.45 8.9624Z" stroke="#2B77D0" stroke-width="2" stroke-miterlimit="10" stroke-linecap="round" stroke-linejoin="round"/>
<path d="M12.4189 15.3325H12.4311M7.88515 15.3325H7.8974M7.88515 19.0075H7.8974" stroke="#2B77D0" stroke-width="2" stroke-linecap="round" stroke-linejoin="round"/>
</svg>
