<svg width="26" height="28" viewBox="0 0 26 28" fill="none" xmlns="http://www.w3.org/2000/svg">
<path d="M7.52617 1V4.675M17.3262 1V4.675M2.01367 9.68525H22.8387M24.6762 21.825C24.6762 22.7437 24.4189 23.6135 23.9657 24.3485C23.5338 25.0743 22.9204 25.6751 22.1858 26.0918C21.4512 26.5085 20.6207 26.7268 19.7762 26.725C18.5389 26.725 17.4119 26.2717 16.5544 25.5C16.1747 25.1815 15.8439 24.7895 15.5867 24.3485C15.1204 23.5895 14.8744 22.7158 14.8762 21.825C14.8762 19.1177 17.0689 16.925 19.7762 16.925C21.2462 16.925 22.5569 17.5742 23.4512 18.591C24.239 19.4843 24.6745 20.6339 24.6762 21.825Z" stroke="#2B77D0" stroke-width="2" stroke-miterlimit="10" stroke-linecap="round" stroke-linejoin="round"/>
<path d="M17.8652 21.825L19.078 23.0378L21.6872 20.6245" stroke="#2B77D0" stroke-width="2" stroke-linecap="round" stroke-linejoin="round"/>
<path d="M23.4504 8.9624V18.5909C22.5561 17.5742 21.2454 16.9249 19.7754 16.9249C17.0681 16.9249 14.8754 19.1177 14.8754 21.8249C14.8754 22.7437 15.1326 23.6134 15.5859 24.3484C15.8431 24.7894 16.1739 25.1814 16.5536 25.4999H7.52539C3.23789 25.4999 1.40039 23.0499 1.40039 19.3749V8.9624C1.40039 5.2874 3.23789 2.8374 7.52539 2.8374H17.3254C21.6129 2.8374 23.4504 5.2874 23.4504 8.9624Z" stroke="#2B77D0" stroke-width="2" stroke-miterlimit="10" stroke-linecap="round" stroke-linejoin="round"/>
<path d="M12.4185 15.3325H12.4307M7.88477 15.3325H7.89702M7.88477 19.0075H7.89702" stroke="#2B77D0" stroke-width="2" stroke-linecap="round" stroke-linejoin="round"/>
</svg>
