<svg width="26" height="28" viewBox="0 0 26 28" fill="none" xmlns="http://www.w3.org/2000/svg">
<path d="M7.52507 1V4.675M17.3251 1V4.675M2.01257 9.68525H22.8376M24.6751 21.825C24.6751 22.7437 24.4178 23.6135 23.9646 24.3485C23.5327 25.0743 22.9193 25.6751 22.1847 26.0918C21.4501 26.5085 20.6196 26.7268 19.7751 26.725C18.5378 26.725 17.4108 26.2717 16.5533 25.5C16.1736 25.1815 15.8428 24.7895 15.5856 24.3485C15.1193 23.5895 14.8733 22.7158 14.8751 21.825C14.8751 19.1177 17.0678 16.925 19.7751 16.925C21.2451 16.925 22.5558 17.5742 23.4501 18.591C24.2379 19.4843 24.6734 20.6339 24.6751 21.825Z" stroke="#2B77D0" stroke-width="2" stroke-miterlimit="10" stroke-linecap="round" stroke-linejoin="round"/>
<path d="M17.864 21.825L19.0768 23.0378L21.686 20.6245" stroke="#2B77D0" stroke-width="2" stroke-linecap="round" stroke-linejoin="round"/>
<path d="M23.45 8.9624V18.5909C22.5558 17.5742 21.245 16.9249 19.775 16.9249C17.0678 16.9249 14.875 19.1177 14.875 21.8249C14.875 22.7437 15.1323 23.6134 15.5855 24.3484C15.8428 24.7894 16.1735 25.1814 16.5533 25.4999H7.52502C3.23752 25.4999 1.40002 23.0499 1.40002 19.3749V8.9624C1.40002 5.2874 3.23752 2.8374 7.52502 2.8374H17.325C21.6125 2.8374 23.45 5.2874 23.45 8.9624Z" stroke="#2B77D0" stroke-width="2" stroke-miterlimit="10" stroke-linecap="round" stroke-linejoin="round"/>
<path d="M12.4189 15.3325H12.4311M7.88513 15.3325H7.89738M7.88513 19.0075H7.89738" stroke="#2B77D0" stroke-width="2" stroke-linecap="round" stroke-linejoin="round"/>
</svg>
