<svg width="33" height="37" viewBox="0 0 33 37" fill="none" xmlns="http://www.w3.org/2000/svg">
<g id="noti icon">
<path id="Vector" d="M16.5478 2.68726C10.1516 2.68726 4.95356 7.36668 4.95356 13.1246V18.152C4.95356 19.2131 4.45115 20.8309 3.85211 21.7355L1.62989 25.058C0.257906 27.1107 1.20477 29.3895 3.71685 30.155C12.0454 32.6599 21.0309 32.6599 29.3594 30.155C31.6975 29.4591 32.7217 26.9716 31.4463 25.058L29.2241 21.7355C28.6444 20.8309 28.142 19.2131 28.142 18.152V13.1246C28.142 7.38408 22.9246 2.68726 16.5478 2.68726Z" stroke="#646E83" stroke-width="1.5" stroke-miterlimit="10" stroke-linecap="round"/>
<path id="Vector_2" d="M20.1224 3.19185C17.7856 2.59273 15.3094 2.59273 12.9727 3.19185C13.533 1.90457 14.9243 1 16.5475 1C18.1707 1 19.562 1.90457 20.1224 3.19185V3.19185Z" stroke="#646E83" stroke-width="1.5" stroke-miterlimit="10" stroke-linecap="round" stroke-linejoin="round"/>
<path id="Vector_3" d="M22.3447 30.7812C22.3447 33.6515 19.736 35.9999 16.5476 35.9999C14.9631 35.9999 13.4945 35.4085 12.451 34.4691C11.3653 33.4903 10.754 32.1645 10.7505 30.7812" stroke="#646E83" stroke-width="1.5" stroke-miterlimit="10"/>
</g>
</svg>
