<svg width="25" height="41" viewBox="0 0 25 41" fill="none" xmlns="http://www.w3.org/2000/svg">
<path d="M1.0895 1.07868C0.744131 1.41838 0.470131 1.82188 0.28318 2.26609C0.0962301 2.71029 0 3.18648 0 3.66739C0 4.14829 0.0962301 4.62448 0.28318 5.06869C0.470131 5.51289 0.744131 5.9164 1.0895 6.2561L15.5444 20.5032L1.0895 34.7503C0.392914 35.4369 0.00157749 36.368 0.00157749 37.339C0.00157749 38.31 0.392914 39.2412 1.0895 39.9277C1.78608 40.6143 2.73085 41 3.71597 41C4.70108 41 5.64585 40.6143 6.34243 39.9277L23.4424 23.0736C23.7878 22.7338 24.0618 22.3303 24.2487 21.8861C24.4357 21.4419 24.5319 20.9657 24.5319 20.4848C24.5319 20.0039 24.4357 19.5277 24.2487 19.0835C24.0618 18.6393 23.7878 18.2358 23.4424 17.8961L6.34243 1.04196C4.92675 -0.353379 2.54244 -0.353378 1.0895 1.07868Z" fill="#2074F4"/>
</svg>
