<svg width="26" height="42" viewBox="0 0 26 42" fill="none" xmlns="http://www.w3.org/2000/svg">
<path d="M22.6252 40.3692C22.9844 40.0441 23.275 39.6523 23.4802 39.2163C23.6855 38.7802 23.8014 38.3085 23.8214 37.828C23.8414 37.3475 23.765 36.8677 23.5967 36.4161C23.4284 35.9645 23.1714 35.55 22.8404 35.1962L8.99026 20.3606L24.0249 6.72664C24.7494 6.06962 25.1791 5.1555 25.2195 4.18539C25.2598 3.21527 24.9075 2.26862 24.2401 1.55369C23.5726 0.838754 22.6447 0.414108 21.6605 0.37316C20.6762 0.332211 19.7162 0.678314 18.9917 1.33533L1.20589 17.4641C0.846703 17.7892 0.556167 18.181 0.350914 18.617C0.14566 19.0531 0.0297221 19.5248 0.00973204 20.0053C-0.010258 20.4858 0.0660927 20.9656 0.234417 21.4172C0.402742 21.8688 0.659733 22.2833 0.990679 22.6371L17.3753 40.1875C18.7318 41.6405 21.114 41.7396 22.6252 40.3692Z" fill="#2074F4"/>
</svg>
