<svg width="103" height="27" viewBox="0 0 103 27" fill="none" xmlns="http://www.w3.org/2000/svg">
<path d="M13.702 20L12.35 15.58H5.59L4.238 20H0L6.552 1.358H11.362L17.94 20H13.702ZM10.062 7.962C9.97533 7.66733 9.86267 7.29467 9.724 6.844C9.58533 6.39333 9.44667 5.934 9.308 5.466C9.16933 4.998 9.05667 4.59067 8.97 4.244C8.88333 4.59067 8.762 5.024 8.606 5.544C8.46733 6.04667 8.32867 6.532 8.19 7C8.06867 7.45067 7.97333 7.77133 7.904 7.962L6.578 12.278H11.414L10.062 7.962ZM24.4772 20.26C22.8998 20.26 21.6085 19.6447 20.6032 18.414C19.6152 17.166 19.1212 15.3373 19.1212 12.928C19.1212 10.5013 19.6238 8.664 20.6292 7.416C21.6345 6.168 22.9518 5.544 24.5812 5.544C25.6038 5.544 26.4445 5.74333 27.1032 6.142C27.7618 6.54067 28.2818 7.03467 28.6632 7.624H28.7932C28.7412 7.34667 28.6805 6.948 28.6112 6.428C28.5418 5.89067 28.5072 5.34467 28.5072 4.79V0.239999H32.3812V20H29.4172L28.6632 18.154H28.5072C28.1258 18.7433 27.6145 19.246 26.9732 19.662C26.3318 20.0607 25.4998 20.26 24.4772 20.26ZM25.8292 17.166C26.9038 17.166 27.6578 16.854 28.0912 16.23C28.5245 15.5887 28.7498 14.6353 28.7672 13.37V12.954C28.7672 11.5673 28.5505 10.51 28.1172 9.782C27.7012 9.054 26.9212 8.69 25.7772 8.69C24.9278 8.69 24.2605 9.06267 23.7752 9.808C23.2898 10.536 23.0472 11.5933 23.0472 12.98C23.0472 14.3667 23.2898 15.4153 23.7752 16.126C24.2605 16.8193 24.9452 17.166 25.8292 17.166ZM46.3383 15.788C46.3383 17.2267 45.827 18.336 44.8043 19.116C43.799 19.8787 42.291 20.26 40.2803 20.26C39.2923 20.26 38.443 20.1907 37.7323 20.052C37.0216 19.9307 36.311 19.7227 35.6003 19.428V16.23C36.363 16.5767 37.1863 16.8627 38.0703 17.088C38.9543 17.3133 39.7343 17.426 40.4103 17.426C41.173 17.426 41.7103 17.3133 42.0223 17.088C42.3516 16.8627 42.5163 16.568 42.5163 16.204C42.5163 15.9613 42.447 15.7447 42.3083 15.554C42.187 15.3633 41.9096 15.1467 41.4763 14.904C41.043 14.6613 40.367 14.3493 39.4483 13.968C38.5643 13.5867 37.8363 13.214 37.2643 12.85C36.6923 12.4687 36.2676 12.018 35.9903 11.498C35.713 10.9607 35.5743 10.2933 35.5743 9.496C35.5743 8.17867 36.0856 7.19067 37.1083 6.532C38.131 5.87333 39.4916 5.544 41.1903 5.544C42.0743 5.544 42.915 5.63067 43.7123 5.804C44.5096 5.97733 45.333 6.26333 46.1823 6.662L45.0123 9.444C44.319 9.14933 43.6603 8.90667 43.0363 8.716C42.4123 8.508 41.7796 8.404 41.1383 8.404C39.9943 8.404 39.4223 8.716 39.4223 9.34C39.4223 9.56533 39.4916 9.77333 39.6303 9.964C39.7863 10.1373 40.0723 10.328 40.4883 10.536C40.9216 10.744 41.5543 11.0213 42.3863 11.368C43.201 11.6973 43.903 12.044 44.4923 12.408C45.0816 12.7547 45.5323 13.1967 45.8443 13.734C46.1736 14.254 46.3383 14.9387 46.3383 15.788ZM57.5201 20L53.0481 5.44H52.9441C52.9615 5.78667 52.9875 6.30667 53.0221 7C53.0568 7.69333 53.0915 8.43867 53.1261 9.236C53.1608 10.016 53.1781 10.7267 53.1781 11.368V20H49.6681V1.436H55.0241L59.4181 15.632H59.4961L64.1501 1.436H69.5061V20H65.8401V11.212C65.8401 10.6227 65.8488 9.94667 65.8661 9.184C65.9008 8.42133 65.9268 7.702 65.9441 7.026C65.9788 6.33267 66.0048 5.81267 66.0221 5.466H65.9181L61.1341 20H57.5201ZM79.7075 5.518C81.6141 5.518 83.0701 5.934 84.0755 6.766C85.0981 7.58067 85.6095 8.83733 85.6095 10.536V20H82.9055L82.1515 18.076H82.0475C81.4408 18.8387 80.7995 19.3933 80.1235 19.74C79.4475 20.0867 78.5201 20.26 77.3415 20.26C76.0761 20.26 75.0275 19.896 74.1955 19.168C73.3635 18.4227 72.9475 17.2873 72.9475 15.762C72.9475 14.254 73.4761 13.1447 74.5335 12.434C75.5908 11.706 77.1768 11.3073 79.2915 11.238L81.7615 11.16V10.536C81.7615 9.79067 81.5621 9.24467 81.1635 8.898C80.7821 8.55133 80.2448 8.378 79.5515 8.378C78.8581 8.378 78.1821 8.482 77.5235 8.69C76.8648 8.88067 76.2061 9.12333 75.5475 9.418L74.2735 6.792C75.0361 6.39333 75.8768 6.08133 76.7955 5.856C77.7315 5.63067 78.7021 5.518 79.7075 5.518ZM80.2535 13.474C79.0055 13.5087 78.1388 13.734 77.6535 14.15C77.1681 14.566 76.9255 15.112 76.9255 15.788C76.9255 16.3773 77.0988 16.802 77.4455 17.062C77.7921 17.3047 78.2428 17.426 78.7975 17.426C79.6295 17.426 80.3315 17.1833 80.9035 16.698C81.4755 16.1953 81.7615 15.4933 81.7615 14.592V13.422L80.2535 13.474ZM97.4789 5.544C99.0735 5.544 100.365 6.168 101.353 7.416C102.341 8.64667 102.835 10.4667 102.835 12.876C102.835 15.2853 102.324 17.1227 101.301 18.388C100.278 19.636 98.9695 20.26 97.3749 20.26C96.3522 20.26 95.5375 20.078 94.9309 19.714C94.3242 19.3327 93.8302 18.908 93.4489 18.44H93.2409C93.3795 19.168 93.4489 19.8613 93.4489 20.52V26.24H89.5749V5.804H92.7209L93.2669 7.65H93.4489C93.8302 7.078 94.3415 6.584 94.9829 6.168C95.6242 5.752 96.4562 5.544 97.4789 5.544ZM96.2309 8.638C95.2255 8.638 94.5149 8.95 94.0989 9.574C93.7002 10.198 93.4835 11.1513 93.4489 12.434V12.85C93.4489 14.2193 93.6482 15.2767 94.0469 16.022C94.4629 16.75 95.2082 17.114 96.2829 17.114C97.1669 17.114 97.8169 16.75 98.2329 16.022C98.6662 15.2767 98.8829 14.2107 98.8829 12.824C98.8829 10.0333 97.9989 8.638 96.2309 8.638Z" fill="#0D6EFD"/>
</svg>
