<svg width="28" height="26" viewBox="0 0 20 16" fill="none" xmlns="http://www.w3.org/2000/svg">
<path d="M12.1463 3.83933H0.857143C0.629814 3.83933 0.411797 3.73821 0.251051 3.5582C0.0903058 3.37819 0 3.13405 0 2.87948C0 2.62491 0.0903058 2.38076 0.251051 2.20075C0.411797 2.02075 0.629814 1.91962 0.857143 1.91962H12.1463C12.3237 1.35818 12.6522 0.872124 13.0865 0.528355C13.5208 0.184586 14.0396 0 14.5714 0C15.1033 0 15.622 0.184586 16.0563 0.528355C16.4906 0.872124 16.8191 1.35818 16.9966 1.91962H19.1429C19.3702 1.91962 19.5882 2.02075 19.749 2.20075C19.9097 2.38076 20 2.62491 20 2.87948C20 3.13405 19.9097 3.37819 19.749 3.5582C19.5882 3.73821 19.3702 3.83933 19.1429 3.83933H16.9966C16.8191 4.40078 16.4906 4.88683 16.0563 5.2306C15.622 5.57437 15.1033 5.75895 14.5714 5.75895C14.0396 5.75895 13.5208 5.57437 13.0865 5.2306C12.6522 4.88683 12.3237 4.40078 12.1463 3.83933ZM19.1429 14.0778C19.3702 14.0778 19.5882 13.9767 19.749 13.7967C19.9097 13.6167 20 13.3725 20 13.118C20 12.8634 19.9097 12.6192 19.749 12.4392C19.5882 12.2592 19.3702 12.1581 19.1429 12.1581H7.85371C7.67626 11.5967 7.34778 11.1106 6.91348 10.7668C6.47918 10.4231 5.96041 10.2385 5.42857 10.2385C4.89673 10.2385 4.37796 10.4231 3.94366 10.7668C3.50937 11.1106 3.18088 11.5967 3.00343 12.1581H0.857143C0.629814 12.1581 0.411797 12.2592 0.251051 12.4392C0.0903058 12.6192 0 12.8634 0 13.118C0 13.3725 0.0903058 13.6167 0.251051 13.7967C0.411797 13.9767 0.629814 14.0778 0.857143 14.0778H3.00343C3.18036 14.6398 3.50864 15.1266 3.943 15.4708C4.37737 15.8151 4.89642 16 5.42857 16C5.96073 16 6.47978 15.8151 6.91414 15.4708C7.3485 15.1266 7.67678 14.6398 7.85371 14.0778H19.1429Z" fill="#6A6E83"/>
</svg>
