<svg width="15" height="8" viewBox="0 0 18 11" fill="none" xmlns="http://www.w3.org/2000/svg">
<path d="M0.997367 0.720365C1.23086 0.467025 1.54751 0.324707 1.87767 0.324707C2.20783 0.324707 2.52447 0.467025 2.75797 0.720365L8.92131 7.40955L15.0847 0.720365C15.3195 0.474205 15.634 0.337996 15.9605 0.341075C16.2869 0.344154 16.5992 0.486274 16.8301 0.736826C17.0609 0.987377 17.1919 1.32631 17.1947 1.68063C17.1976 2.03495 17.0721 2.37631 16.8453 2.63117L9.80161 10.2758C9.56812 10.5291 9.25147 10.6714 8.92131 10.6714C8.59115 10.6714 8.27451 10.5291 8.04101 10.2758L0.997367 2.63117C0.763943 2.37776 0.632812 2.0341 0.632812 1.67577C0.632812 1.31744 0.763943 0.97378 0.997367 0.720365Z" fill="#888888"/>
</svg>
