<svg width="24" height="24" viewBox="0 0 24 24" fill="none" xmlns="http://www.w3.org/2000/svg">
<path d="M17.1793 3.22182C19.411 3.22182 21.2055 4.96532 21.2055 7.10861C21.2055 9.20747 19.48 10.9177 17.3289 10.9954C17.2295 10.9843 17.1292 10.9843 17.0298 10.9954M19.3995 20.99C20.2277 20.8234 21.0099 20.5014 21.6541 20.0238C23.4486 18.7245 23.4486 16.5813 21.6541 15.282C21.0214 14.8155 20.2507 14.5046 19.434 14.3269M8.83948 10.851C8.72444 10.8399 8.5864 10.8399 8.45987 10.851C7.13953 10.8077 5.88848 10.27 4.97165 9.35179C4.05483 8.43354 3.54422 7.20683 3.54797 5.93147C3.54797 3.21072 5.82562 1.0008 8.65543 1.0008C10.0085 0.97724 11.3158 1.47354 12.2898 2.38051C13.2638 3.28749 13.8247 4.53085 13.8491 5.83707C13.8736 7.14329 13.3595 8.40537 12.42 9.34567C11.4805 10.286 10.1925 10.8275 8.83948 10.851ZM3.08784 14.9488C0.304052 16.7478 0.304052 19.6796 3.08784 21.4675C6.25124 23.5108 11.4392 23.5108 14.6026 21.4675C17.3864 19.6685 17.3864 16.7367 14.6026 14.9488C11.4507 12.9166 6.26274 12.9166 3.08784 14.9488Z" stroke="#6A6E83" stroke-width="2" stroke-linecap="round" stroke-linejoin="round"/>
</svg>
