<svg width="29" height="32" viewBox="0 0 29 32" fill="none" xmlns="http://www.w3.org/2000/svg">
<path d="M7.86969 1.81055V5.93555M18.4784 1.81055V5.93555M6.54361 14.1855H14.5001M6.54361 21.0605H10.018M25.1088 10.748V17.8018C23.8844 16.7908 22.3642 16.2428 20.799 16.248C19.168 16.248 17.643 16.8393 16.4495 17.843C15.6314 18.5138 14.9711 19.3686 14.5186 20.3429C14.066 21.3172 13.8329 22.3854 13.8371 23.4668C13.8371 24.8143 14.2084 26.1068 14.8449 27.1793C15.3356 28.018 15.9721 28.7468 16.728 29.3105H7.86969C3.22839 29.3105 1.23926 26.5605 1.23926 22.4355V10.748C1.23926 6.62305 3.22839 3.87305 7.86969 3.87305H18.4784C23.1197 3.87305 25.1088 6.62305 25.1088 10.748Z" stroke="#6A6E83" stroke-width="2" stroke-miterlimit="10" stroke-linecap="round" stroke-linejoin="round"/>
<path d="M27.7608 23.4668C27.7608 24.8143 27.3895 26.1068 26.753 27.1793C26.3817 27.8393 25.9176 28.4168 25.3739 28.8843C24.1539 30.0118 22.5626 30.6855 20.7989 30.6855C19.2739 30.6855 17.8682 30.1768 16.7278 29.3105C15.9719 28.7468 15.3354 28.018 14.8447 27.1793C14.2082 26.1068 13.8369 24.8143 13.8369 23.4668C13.8369 21.198 14.8447 19.1493 16.4493 17.843C17.6428 16.8393 19.1678 16.248 20.7989 16.248C22.43 16.248 23.9284 16.8255 25.1087 17.8018C26.7265 19.1218 27.7608 21.1705 27.7608 23.4668V23.4668Z" stroke="#6A6E83" stroke-width="2" stroke-miterlimit="10" stroke-linecap="round" stroke-linejoin="round"/>
<path d="M20.7986 26.9043C20.7986 25.9926 21.1479 25.1183 21.7696 24.4736C22.3913 23.829 23.2346 23.4668 24.1138 23.4668C23.2346 23.4668 22.3913 23.1046 21.7696 22.46C21.1479 21.8153 20.7986 20.941 20.7986 20.0293C20.7986 20.941 20.4493 21.8153 19.8276 22.46C19.2059 23.1046 18.3626 23.4668 17.4834 23.4668C18.3626 23.4668 19.2059 23.829 19.8276 24.4736C20.4493 25.1183 20.7986 25.9926 20.7986 26.9043Z" stroke="#6A6E83" stroke-width="2" stroke-linecap="round" stroke-linejoin="round"/>
</svg>
