<svg width="28" height="28" viewBox="0 0 24 24" fill="none" xmlns="http://www.w3.org/2000/svg">
<path d="M10 5H3C2.73478 5 2.48043 5.10536 2.29289 5.29289C2.10536 5.48043 2 5.73478 2 6V19C2 19.2652 2.10536 19.5196 2.29289 19.7071C2.48043 19.8946 2.73478 20 3 20H21C21.2652 20 21.5196 19.8946 21.7071 19.7071C21.8946 19.5196 22 19.2652 22 19V17.75" stroke="#6A6E83" stroke-width="1.66667" stroke-linecap="round" stroke-linejoin="round"/>
<path d="M5 11.5H9M5 15.5H17" stroke="#6A6E83" stroke-width="1.66667" stroke-linecap="round"/>
<path d="M17 11C18.6569 11 20 9.65685 20 8C20 6.34315 18.6569 5 17 5C15.3431 5 14 6.34315 14 8C14 9.65685 15.3431 11 17 11Z" stroke="#6A6E83" stroke-width="1.66667" stroke-linecap="round" stroke-linejoin="round"/>
<path d="M22.0016 14.2095C21.0251 12.301 19.0016 11 17.0016 11C15.0016 11 14.0051 11.5665 12.9766 12.5" stroke="#6A6E83" stroke-width="1.66667" stroke-linecap="round" stroke-linejoin="round"/>
</svg>
