<svg width="28" height="28" viewBox="0 0 21 24" fill="none" xmlns="http://www.w3.org/2000/svg">
<path d="M18.0493 14.3969C18.437 14.397 18.8208 14.467 19.1789 14.6028C19.537 14.7386 19.8623 14.9376 20.1363 15.1883C20.4103 15.4391 20.6276 15.7368 20.7758 16.0643C20.924 16.3919 21.0002 16.7429 21 17.0974V17.7876C21 18.8606 20.58 19.8988 19.8187 20.7137C17.7579 22.9138 14.6248 24 10.4954 24C6.36602 24 3.2342 22.9138 1.1787 20.7113C0.418199 19.8968 0.000272032 18.861 0 17.79V17.0962C0 16.3803 0.311013 15.6937 0.86462 15.1875C1.41823 14.6813 2.16908 14.3969 2.952 14.3969H18.0493ZM18.0493 16.1972H2.95068C2.82136 16.1971 2.69327 16.2203 2.57375 16.2654C2.45424 16.3106 2.34564 16.3769 2.2542 16.4605C2.16275 16.5442 2.09024 16.6435 2.04083 16.7527C1.99142 16.862 1.96607 16.9792 1.96625 17.0974V17.79C1.96625 18.4321 2.21826 19.0538 2.67504 19.5423C4.31971 21.3055 6.90156 22.1996 10.4941 22.1996C14.0893 22.1996 16.6711 21.3055 18.321 19.5435C18.7787 19.0542 19.03 18.4314 19.0298 17.7876V17.0962C19.0298 16.858 18.9264 16.6295 18.7423 16.461C18.5582 16.2924 18.3098 16.1976 18.0493 16.1972ZM10.4954 0C11.3573 -1.17434e-08 12.2107 0.155225 13.0069 0.456814C13.8032 0.758402 14.5267 1.20045 15.1361 1.75771C15.7455 2.31497 16.2289 2.97654 16.5587 3.70464C16.8886 4.43274 17.0583 5.21311 17.0583 6.0012C17.0583 6.78929 16.8886 7.56966 16.5587 8.29776C16.2289 9.02586 15.7455 9.68743 15.1361 10.2447C14.5267 10.802 13.8032 11.244 13.0069 11.5456C12.2107 11.8472 11.3573 12.0024 10.4954 12.0024C8.75481 12.0024 7.08551 11.3701 5.85473 10.2447C4.62394 9.11925 3.9325 7.59282 3.9325 6.0012C3.9325 4.40958 4.62394 2.88315 5.85473 1.75771C7.08551 0.632267 8.75481 0 10.4954 0ZM10.4954 1.80036C9.89211 1.80036 9.29472 1.90902 8.73734 2.12013C8.17997 2.33124 7.67353 2.64067 7.24693 3.03076C6.82034 3.42084 6.48194 3.88394 6.25107 4.39361C6.0202 4.90328 5.90137 5.44954 5.90137 6.0012C5.90137 6.55286 6.0202 7.09912 6.25107 7.60879C6.48194 8.11846 6.82034 8.58156 7.24693 8.97164C7.67353 9.36173 8.17997 9.67116 8.73734 9.88227C9.29472 10.0934 9.89211 10.202 10.4954 10.202C11.7138 10.202 12.8823 9.75945 13.7439 8.97164C14.6054 8.18383 15.0894 7.11533 15.0894 6.0012C15.0894 4.88707 14.6054 3.81857 13.7439 3.03076C12.8823 2.24295 11.7138 1.80036 10.4954 1.80036Z" fill="#6A6E83"/>
</svg>
