<svg width="26" height="28" viewBox="0 0 26 28" fill="none" xmlns="http://www.w3.org/2000/svg">
<path d="M7.5252 1V4.675M17.3252 1V4.675M2.0127 9.68525H22.8377M24.6752 21.825C24.6752 22.7437 24.4179 23.6135 23.9647 24.3485C23.5328 25.0743 22.9194 25.6751 22.1848 26.0918C21.4502 26.5085 20.6198 26.7268 19.7752 26.725C18.5379 26.725 17.4109 26.2717 16.5534 25.5C16.1737 25.1815 15.8429 24.7895 15.5857 24.3485C15.1194 23.5895 14.8734 22.7158 14.8752 21.825C14.8752 19.1177 17.0679 16.925 19.7752 16.925C21.2452 16.925 22.5559 17.5742 23.4502 18.591C24.238 19.4843 24.6735 20.6339 24.6752 21.825Z" stroke="#999999" stroke-width="2" stroke-miterlimit="10" stroke-linecap="round" stroke-linejoin="round"/>
<path d="M17.8643 21.825L19.077 23.0378L21.6863 20.6245" stroke="#999999" stroke-width="2" stroke-linecap="round" stroke-linejoin="round"/>
<path d="M23.4504 8.9624V18.5909C22.5561 17.5742 21.2454 16.9249 19.7754 16.9249C17.0681 16.9249 14.8754 19.1177 14.8754 21.8249C14.8754 22.7437 15.1326 23.6134 15.5859 24.3484C15.8431 24.7894 16.1739 25.1814 16.5536 25.4999H7.52539C3.23789 25.4999 1.40039 23.0499 1.40039 19.3749V8.9624C1.40039 5.2874 3.23789 2.8374 7.52539 2.8374H17.3254C21.6129 2.8374 23.4504 5.2874 23.4504 8.9624Z" stroke="#999999" stroke-width="2" stroke-miterlimit="10" stroke-linecap="round" stroke-linejoin="round"/>
<path d="M12.4195 15.3325H12.4317M7.88574 15.3325H7.89799M7.88574 19.0075H7.89799" stroke="#999999" stroke-width="2" stroke-linecap="round" stroke-linejoin="round"/>
</svg>
