<svg width="22" height="22" viewBox="0 0 22 22" fill="none" xmlns="http://www.w3.org/2000/svg">
<mask id="mask0_1159_3276" style="mask-type:luminance" maskUnits="userSpaceOnUse" x="0" y="0" width="22" height="22">
<path d="M11 21C16.5228 21 21 16.5228 21 11C21 5.47715 16.5228 1 11 1C5.47715 1 1 5.47715 1 11C1 16.5228 5.47715 21 11 21Z" fill="white" stroke="white" stroke-width="1.66667" stroke-linecap="round" stroke-linejoin="round"/>
<path d="M18 18L16.5 16.5M4 4L5.5 5.5" stroke="white" stroke-width="1.66667" stroke-linecap="round" stroke-linejoin="round"/>
<path d="M9.57269 13L8.00119 7.5L6.42969 13H9.57269Z" fill="white"/>
<path d="M6 14.5L6.4285 13M6.4285 13L8 7.5L9.5715 13M6.4285 13H9.5715M10 14.5L9.5715 13" stroke="black" stroke-width="1.66667" stroke-linecap="round" stroke-linejoin="round"/>
<path d="M16.5 11C16.5 13.5 14.709 14.5 12.5 14.5V7.5C14.709 7.5 16.5 8.5 16.5 11Z" fill="white" stroke="black" stroke-width="1.66667" stroke-linecap="round" stroke-linejoin="round"/>
</mask>
<g mask="url(#mask0_1159_3276)">
<path d="M-1 -1H23V23H-1V-1Z" fill="#6A6E83"/>
</g>
</svg>
